<?xml version="1.0" encoding="UTF-8" standalone="no"?>
<!-- Created with Inkscape (http://www.inkscape.org/) -->

<svg
   width="492"
   height="363"
   viewBox="0 0 130.175 96.04375"
   version="1.1"
   id="svg1"
   xml:space="preserve"
   inkscape:export-filename="cover.svg"
   inkscape:export-xdpi="96"
   inkscape:export-ydpi="96"
   xmlns:inkscape="http://www.inkscape.org/namespaces/inkscape"
   xmlns:sodipodi="http://sodipodi.sourceforge.net/DTD/sodipodi-0.dtd"
   xmlns="http://www.w3.org/2000/svg"
   xmlns:svg="http://www.w3.org/2000/svg"><sodipodi:namedview
     id="namedview1"
     pagecolor="#73E2B8"
     bordercolor="#73E2B8"
     borderopacity="1"
     inkscape:showpageshadow="0"
     inkscape:pageopacity="1"
     inkscape:pagecheckerboard="0"
     inkscape:deskcolor="#73E2B8"
     inkscape:document-units="px" /><defs
     id="defs1" /><g
     inkscape:label="Layer 1"
     inkscape:groupmode="layer"
     id="layer1"><g
       style="fill:#73E2B8"
       id="g1"
       transform="matrix(0.73791375,0,0,0.73791375,9.1781914,0.75619804)"><g
         id="g3">&#10;&#10;<path
   d="M -10.717691,41 H 152.04115 v 78 H 0.31680621 V 51 H -10.717691 v 76 H 163.07564 V 1 H -10.717691 Z M 0.31680621,9 H 152.04115 V 33 H 0.31680621 Z"
   id="path1-5"
   style="stroke-width:1.17444" />&#10;&#10;<rect
   height="8"
   width="8"
   x="17"
   y="17"
   id="rect1" />&#10;&#10;<rect
   height="8"
   width="8"
   x="33"
   y="17"
   id="rect2" />&#10;&#10;<rect
   height="8"
   width="84.000694"
   x="48.000397"
   y="16.633476"
   id="rect3"
   transform="matrix(0.99999171,0.00407246,0,1,0,0)"
   style="stroke-width:1.41422"
   inkscape:transform-center-x="-0.87565282"
   inkscape:transform-center-y="0.7736462" />&#10;&#10;</g><g
         style="fill:none"
         id="g2"
         transform="matrix(3.2549554,0,0,3.2549554,35.323759,41.336775)"><path
           d="m 20.73,16.52 c 0,0 0,-0.07 0,-0.11 V 7.58999 c -3e-4,-0.11475 -0.0278,-0.22781 -0.08,-0.33 -0.0736,-0.1588 -0.2012,-0.28635 -0.36,-0.36 l -8,-3.58 C 12.1926,3.2758 12.0869,3.25293 11.98,3.25293 c -0.1069,0 -0.2126,0.02287 -0.31,0.06706 l -7.99999,3.58 C 3.54135,6.96474 3.43255,7.06303 3.35511,7.18448 3.27766,7.30592 3.23444,7.44603 3.23001,7.58999 V 16.41 c 0.00748,0.1432 0.05194,0.2821 0.12905,0.403 0.07711,0.1209 0.18425,0.2198 0.31095,0.287 L 11.67,20.68 c 0.0968,0.0462 0.2027,0.0701 0.31,0.0701 0.1073,0 0.2132,-0.0239 0.31,-0.0701 l 8,-3.58 c 0.1155,-0.0529 0.2161,-0.1335 0.2929,-0.2347 0.0768,-0.1012 0.1273,-0.2198 0.1471,-0.3453 z M 4.73001,8.73999 11.23,11.66 v 7.18 L 4.73001,15.93 Z M 12.73,11.66 19.23,8.73999 V 15.93 l -6.5,2.91 z M 12,4.81999 18.17,7.58999 12,10.35 5.83001,7.58999 Z"
           fill="#73E2B8"
           id="path1" /></g></g></g><style
     type="text/css"
     id="style1">&#10;	.st0{fill:#73E2B8;}&#10;</style></svg>
